<?xml version="1.0" encoding="iso-8859-1"?>
<!-- Uploaded to: SVG Repo, www.svgrepo.com, Generator: SVG Repo Mixer Tools -->
<svg fill="#000000" height="800px" width="800px" version="1.1" id="Layer_1" xmlns="http://www.w3.org/2000/svg" xmlns:xlink="http://www.w3.org/1999/xlink" 
	 viewBox="0 0 512 512" xml:space="preserve">
<g>
	<g>
		<path d="M501.551,91.951h-61.39c-5.771,0-10.449,4.678-10.449,10.449v61.442c0,5.771,4.678,10.449,10.449,10.449h19.719
			c-4.765,92.274-72.22,170.879-162.362,189.524v-16.413c0-5.77-4.678-10.449-10.449-10.449h-62.14
			c-5.771,0-10.449,4.679-10.449,10.449v16.362c-89.998-18.741-157.344-97.32-162.108-189.472h19.464
			c5.771,0,10.449-4.678,10.449-10.449V102.4c0-5.771-4.678-10.449-10.449-10.449H10.449C4.678,91.951,0,96.629,0,102.4v61.442
			c0,5.771,4.678,10.449,10.449,10.449h20.993c2.347,50.645,21.698,99.095,55.094,137.42c20.93,24.021,46.521,43.139,74.908,56.341
			h-45.089c-5.771,0-10.449,4.679-10.449,10.449c0,5.77,4.678,10.449,10.449,10.449h98.127v20.65c0,5.77,4.678,10.449,10.449,10.449
			h62.14c5.771,0,10.449-4.679,10.449-10.449v-20.65h98.505c5.771,0,10.449-4.679,10.449-10.449c0-5.77-4.678-10.449-10.449-10.449
			h-45.218c28.349-13.183,53.91-32.265,74.829-56.245c33.448-38.341,52.83-86.825,55.178-137.516h20.737
			c5.771,0,10.449-4.678,10.449-10.449V102.4C512,96.629,507.322,91.951,501.551,91.951z M20.898,153.393v-40.544H61.39v40.544
			H20.898z M276.621,399.151h-41.242v-41.3h41.242V399.151z M491.102,153.393H450.61v-40.544h40.492V153.393z"/>
	</g>
</g>
<g>
	<g>
		<path d="M493.542,343.977h-32.088c-10.179,0-18.46,8.285-18.46,18.469v5.606h-21.578c-5.771,0-10.449,4.679-10.449,10.449
			c0,5.77,4.678,10.449,10.449,10.449h21.578v5.606c0,10.182,8.281,18.468,18.46,18.468h32.088c10.178,0,18.458-8.285,18.458-18.468
			v-32.11C512,352.262,503.72,343.977,493.542,343.977z M491.102,392.125h-27.21v-27.25h27.21V392.125z"/>
	</g>
</g>
<g>
	<g>
		<path d="M90.963,368.052H69.006v-5.608c0-10.182-8.279-18.466-18.455-18.466H18.46C8.281,343.977,0,352.261,0,362.444v32.112
			c0,10.183,8.281,18.468,18.46,18.468h32.086c10.179,0,18.46-8.285,18.46-18.468v-5.606h21.956c5.771,0,10.449-4.679,10.449-10.449
			C101.412,372.731,96.734,368.052,90.963,368.052z M48.108,392.125h-27.21v-27.25h27.21V392.125z"/>
	</g>
</g>
</svg>