<svg width="480" height="396" viewBox="0 0 480 396" fill="none" xmlns="http://www.w3.org/2000/svg">
<g clip-path="url(#clip0_1018_365)">
<path d="M446.203 46.2908C445.05 46.2908 444.117 45.3579 444.117 44.2081V2.60636C444.117 1.45542 445.051 0.523712 446.203 0.523712C447.354 0.523712 448.289 1.45664 448.289 2.60636V44.2081C448.289 45.3591 447.354 46.2908 446.203 46.2908Z" fill="#4F4F4F"/>
<path d="M467.034 25.4899H425.371C424.219 25.4899 423.286 24.557 423.286 23.4072C423.286 22.2575 424.22 21.3246 425.371 21.3246H467.034C468.187 21.3246 469.12 22.2575 469.12 23.4072C469.12 24.557 468.186 25.4899 467.034 25.4899Z" fill="#4F4F4F"/>
<path d="M467.034 262.528C465.882 262.528 464.949 261.595 464.949 260.445V238.719C464.949 237.568 465.883 236.636 467.034 236.636C468.186 236.636 469.12 237.569 469.12 238.719V260.445C469.12 261.596 468.186 262.528 467.034 262.528Z" fill="#4F4F4F"/>
<path d="M477.914 251.664H456.156C455.003 251.664 454.07 250.731 454.07 249.581C454.07 248.432 455.005 247.499 456.156 247.499H477.914C479.067 247.499 480 248.432 480 249.581C480 250.731 479.066 251.664 477.914 251.664Z" fill="#4F4F4F"/>
<path d="M77.6226 23.0918C83.4326 23.0918 88.1426 18.3887 88.1426 12.5872C88.1426 6.7857 83.4326 2.08264 77.6226 2.08264C71.8125 2.08264 67.1025 6.7857 67.1025 12.5872C67.1025 18.3887 71.8125 23.0918 77.6226 23.0918Z" fill="#EBEBEB"/>
<path d="M77.6223 25.1757C70.6712 25.1757 65.0166 19.5294 65.0166 12.5884C65.0166 5.6475 70.6712 0 77.6223 0C84.5735 0 90.2281 5.64629 90.2281 12.5872C90.2281 19.5282 84.5735 25.1744 77.6223 25.1744V25.1757ZM77.6223 4.16651C72.9716 4.16651 69.188 7.94451 69.188 12.5884C69.188 17.2324 72.9716 21.0104 77.6223 21.0104C82.2731 21.0104 86.0567 17.2324 86.0567 12.5884C86.0567 7.94451 82.2731 4.16651 77.6223 4.16651Z" fill="#4F4F4F"/>
<path d="M255.291 396C337.868 396 404.811 382.481 404.811 365.805C404.811 349.129 337.868 335.611 255.291 335.611C172.713 335.611 105.771 349.129 105.771 365.805C105.771 382.481 172.713 396 255.291 396Z" fill="#EBEBEB"/>
<path d="M252.768 350.223C248.955 350.223 244.548 349.576 239.887 347.646L142.654 311.505C142.615 311.491 142.577 311.476 142.54 311.459C142.382 311.39 138.637 309.727 134.844 306.965C129.426 303.018 126.68 298.89 126.68 294.696V145.343C126.68 144.217 127.577 143.293 128.706 143.261L383.725 135.944C384.289 135.93 384.835 136.141 385.238 136.533C385.642 136.925 385.87 137.463 385.87 138.027V294.697C385.87 294.94 385.827 295.183 385.743 295.413C385.692 295.553 384.447 298.898 381.407 302.482C377.413 307.193 372.143 310.166 366.157 311.089L265.65 347.633C264.798 348.032 259.791 350.226 252.766 350.226L252.768 350.223ZM144.174 307.625L241.379 343.756C241.404 343.766 241.429 343.776 241.454 343.785C246.479 345.874 251.772 346.524 257.188 345.716C261.274 345.107 263.901 343.849 263.927 343.836C263.991 343.805 264.062 343.776 264.129 343.75L364.928 307.1C365.062 307.052 365.2 307.017 365.34 306.997C370.414 306.257 374.716 303.87 378.126 299.902C380.229 297.456 381.342 295.113 381.699 294.288V140.169L130.851 147.366V294.696C130.851 298.153 134.33 301.425 137.247 303.56C140.454 305.905 143.728 307.424 144.173 307.626L144.174 307.625Z" fill="#4F4F4F"/>
<path d="M255.291 350.098C254.138 350.098 253.205 349.165 253.205 348.015V184.596C253.205 183.445 254.139 182.513 255.291 182.513C256.442 182.513 257.376 183.446 257.376 184.596V348.015C257.376 349.166 256.442 350.098 255.291 350.098Z" fill="#4F4F4F"/>
<path d="M255.291 184.596C250.716 190.571 246.141 196.546 241.567 202.521C233.049 213.644 226.037 228.127 209.405 222.842L99.031 172.013C99.031 172.013 91.9749 166.478 102.055 158.929L139.181 134.941C139.181 134.941 255.291 184.594 255.291 184.596Z" fill="white"/>
<path d="M216.117 226.05C213.778 226.05 211.335 225.642 208.771 224.827C208.689 224.802 208.609 224.77 208.53 224.733L98.1553 173.905C98.0077 173.836 97.8686 173.751 97.7406 173.651C97.6076 173.548 94.4973 171.06 94.5425 166.972C94.5803 163.612 96.6855 160.344 100.801 157.263C100.84 157.234 100.879 157.207 100.919 157.18L138.046 133.192C138.629 132.816 139.362 132.753 140 133.026L255.776 182.538C256.314 182.769 257.127 183.116 257.336 184.201C257.449 184.784 257.307 185.388 256.945 185.86L243.219 203.785C242.038 205.329 240.854 206.982 239.71 208.58C236.095 213.63 232.355 218.851 227.597 222.242C224.03 224.785 220.232 226.05 216.114 226.05H216.117ZM210.158 220.896C215.92 222.697 220.695 222.045 225.177 218.851C229.37 215.863 232.903 210.929 236.32 206.158C237.483 204.533 238.686 202.853 239.908 201.256L252.005 185.457C236.24 178.714 149.813 141.754 139.38 137.293L103.248 160.638C100.324 162.841 98.7566 165.032 98.7139 166.98C98.6785 168.638 99.775 169.857 100.184 170.252L210.155 220.896H210.158Z" fill="#4F4F4F"/>
<path d="M255.291 184.596L280.754 217.767C280.754 217.767 286.263 226.616 297.603 221.333L411.001 173.02C411.001 173.02 420.828 167.233 414.528 161.194L377.737 134.606L255.291 184.596Z" fill="white"/>
<path d="M284.858 178.556L310.321 211.727C310.321 211.727 315.83 220.577 327.17 215.293L440.568 166.981C440.568 166.981 450.395 161.193 444.095 155.155L407.304 128.566L284.858 178.556Z" fill="#EBEBEB"/>
<path d="M255.291 84.6163L139.182 134.941L255.291 184.596L377.737 134.606L255.291 84.6163Z" fill="white"/>
<path d="M255.291 186.678C255.012 186.678 254.732 186.622 254.47 186.51L138.361 136.857C137.595 136.529 137.098 135.779 137.096 134.947C137.093 134.115 137.587 133.362 138.351 133.031L254.46 82.7066C254.976 82.4838 255.56 82.4765 256.08 82.6896L378.526 132.679C379.31 133 379.822 133.761 379.822 134.607C379.822 135.454 379.31 136.215 378.526 136.535L256.08 186.525C255.826 186.628 255.559 186.679 255.291 186.679V186.678ZM144.449 134.929L255.309 182.338L372.225 134.606L255.315 86.8768L144.449 134.929Z" fill="#4F4F4F"/>
<path d="M139.182 134.941C139.182 134.941 108.844 110.617 96.6296 108.605C96.6296 108.605 82.637 100.553 96.6296 93.0042L208.901 43.5894C208.901 43.5894 216.964 37.4535 223.013 43.5894L261.526 81.915L139.182 134.942V134.941Z" fill="white"/>
<path d="M119.096 135.821C119.096 135.821 88.7583 111.497 76.5441 109.485C76.5441 109.485 62.5516 101.433 76.5441 93.8847L188.815 44.47C188.815 44.47 196.879 38.3341 202.927 44.47L241.441 82.7956L119.096 135.823V135.821Z" fill="#EBEBEB"/>
<path d="M226.427 321.427L219.969 319.124V296.557H215.356L223.198 287.346L233.345 297.939L226.427 298.86V321.427Z" fill="#4F4F4F"/>
<path d="M351.418 266.305V293.793L373.556 284.583V258.793L351.418 266.305Z" fill="#4F4F4F"/>
<path d="M347.728 282.741L340.348 285.504V258.793L362.487 249.581V258.793L347.962 264.678L347.728 282.741Z" fill="#EBEBEB"/>
<path d="M139.181 137.024C138.714 137.024 138.252 136.868 137.875 136.564C137.799 136.503 130.226 130.443 121.275 124.223C106.545 113.988 99.5577 111.197 96.2889 110.659C96.0413 110.619 95.8034 110.534 95.5875 110.408C95.5144 110.367 93.7811 109.361 92.0577 107.723C89.5817 105.369 88.2912 102.802 88.3254 100.303C88.3729 96.8345 90.8331 93.7629 95.6375 91.17C95.6863 91.1432 95.7363 91.1188 95.7876 91.0969L207.857 41.7698C208.511 41.3119 210.526 40.0002 213.13 39.2792C217.527 38.0625 221.455 39.0441 224.491 42.1182L262.998 80.4364C263.487 80.9236 263.704 81.6215 263.575 82.2986C263.446 82.9758 262.99 83.547 262.357 83.8223L140.012 136.849C139.745 136.965 139.463 137.021 139.181 137.021V137.024ZM97.3781 106.623C102.794 107.676 111.638 112.45 123.678 120.818C130.845 125.799 137.138 130.678 139.497 132.533L257.878 81.2244L221.539 45.0643C221.539 45.0643 221.529 45.0546 221.524 45.0497C219.56 43.0572 217.178 42.4836 214.244 43.2947C211.924 43.9365 210.18 45.2324 210.163 45.2446C210.032 45.3444 209.891 45.4273 209.739 45.4943L97.5464 94.8749C95.2411 96.1281 92.5261 98.0853 92.4943 100.36C92.4578 102.983 95.8315 105.65 97.3756 106.622L97.3781 106.623Z" fill="#4F4F4F"/>
<path d="M75.2088 287.71C75.2088 287.71 67.0733 279.241 67.0538 279.254C71.0934 273.363 73.4658 266.24 73.4658 258.561C73.4658 238.303 57.0192 221.882 36.7317 221.882C16.4442 221.882 0 238.303 0 258.56C0 268.883 4.45561 278.882 12.1301 285.798C22.4915 295.135 36.1072 295.239 49.2752 295.239C54.2175 295.239 59.1598 295.239 64.1008 295.239C69.0419 295.239 83.2711 296.206 75.2075 287.708L75.2088 287.71Z" fill="#EBEBEB"/>
<path d="M255.291 84.6164L285.547 48.5634C285.547 48.5634 289.034 40.1634 301.13 45.1959L413.52 92.5012C413.52 92.5012 425.615 98.0366 413.52 105.082L377.737 134.606L255.291 84.6164Z" fill="white"/>
<path d="M377.736 136.689C377.47 136.689 377.201 136.637 376.946 136.534L254.501 86.5443C253.885 86.2922 253.425 85.7624 253.265 85.1169C253.105 84.4714 253.264 83.7882 253.691 83.2791L283.781 47.4234C284.265 46.4759 285.878 43.8184 289.295 42.408C292.814 40.9575 297.066 41.2474 301.93 43.2716L414.328 90.5805C414.348 90.589 414.367 90.5976 414.387 90.6061C415.036 90.9033 420.738 93.6472 420.972 98.3947C421.121 101.427 419.018 104.252 414.717 106.792L379.063 136.21C378.682 136.524 378.211 136.687 377.733 136.687L377.736 136.689ZM258.723 83.7675L377.37 132.205L412.19 103.476C412.277 103.404 412.371 103.339 412.468 103.282C415.333 101.614 416.874 99.9512 416.807 98.5993C416.72 96.8309 414.006 95.0223 412.677 94.406L300.318 47.1141C296.123 45.3688 292.575 45.2117 290.065 46.6635C288.279 47.695 287.532 49.2345 287.468 49.3709C287.387 49.5767 287.288 49.729 287.144 49.9007L258.722 83.7675H258.723Z" fill="#4F4F4F"/>
<path d="M290.705 225.095C287.855 225.095 285.575 224.275 283.91 223.351C280.978 221.723 279.402 219.511 279.045 218.965L253.634 185.862C253.239 185.347 253.106 184.677 253.277 184.051C253.447 183.425 253.899 182.912 254.502 182.668L376.947 132.678C377.615 132.405 378.376 132.497 378.96 132.919L415.751 159.508C415.83 159.564 415.904 159.626 415.973 159.693C418.553 162.166 418.867 164.637 418.675 166.276C418.109 171.123 412.678 174.452 412.061 174.816C411.983 174.862 411.902 174.902 411.819 174.937L298.453 223.237C295.534 224.591 292.945 225.096 290.706 225.096L290.705 225.095ZM282.521 216.662C282.595 216.776 283.805 218.574 286.086 219.792C289.145 221.424 292.724 221.309 296.72 219.446C296.74 219.437 296.762 219.427 296.783 219.418L410.044 171.164C411.231 170.429 414.267 168.09 414.532 165.787C414.574 165.416 414.701 164.301 413.182 162.794L377.454 136.974L258.607 185.493L282.409 216.5C282.454 216.56 282.483 216.6 282.521 216.662Z" fill="#4F4F4F"/>
<path d="M80.5984 297.352C79.9739 297.352 79.3397 297.346 78.7006 297.337C78.2005 297.33 77.7272 297.324 77.3381 297.324H62.5125C49.636 297.324 35.0421 297.324 23.9696 287.346C19.9884 283.758 16.7208 279.249 14.518 274.304C12.3152 269.358 11.1504 263.915 11.1504 258.561C11.1504 248.208 15.1876 238.474 22.5206 231.153C29.8535 223.832 39.6002 219.8 49.969 219.8C60.3378 219.8 70.0869 223.831 77.4186 231.153C84.7503 238.475 88.7888 248.208 88.7888 258.561C88.7888 265.83 86.7763 272.858 82.9513 278.995C82.9915 279.037 83.033 279.081 83.0757 279.123C83.8417 279.916 84.8613 280.975 85.881 282.033C87.9179 284.15 89.9524 286.266 89.9524 286.266L89.961 286.276C90.9514 287.321 93.9677 290.499 92.6016 293.609C91.177 296.854 86.2543 297.352 80.6009 297.352H80.5984ZM77.3369 293.157C77.7565 293.157 78.2444 293.165 78.7591 293.172C80.618 293.199 83.1623 293.235 85.3236 292.981C88.0692 292.657 88.6912 292.038 88.7717 291.943C88.7705 291.823 88.6876 290.997 86.9336 289.147C83.9185 286.008 79.3421 281.251 78.8726 280.782C78.8396 280.752 78.8079 280.72 78.7762 280.687C78.0992 279.975 78.0126 278.887 78.5688 278.077C82.5244 272.308 84.6162 265.559 84.6162 258.561C84.6162 239.485 69.0734 223.965 49.969 223.965C30.8646 223.965 15.323 239.485 15.3218 258.561C15.3218 268.336 19.492 277.7 26.7639 284.252C36.6461 293.157 49.7946 293.157 62.5113 293.157H77.3369ZM81.3754 281.032C81.0595 281.224 80.7082 281.324 80.3582 281.335C80.696 281.325 81.0449 281.233 81.3754 281.032ZM78.8982 280.804C78.986 280.884 79.0836 280.958 79.1897 281.022C79.0872 280.959 78.9896 280.886 78.8982 280.804Z" fill="#4F4F4F"/>
<path d="M52.0476 282.34C52.0293 282.34 52.0123 282.34 51.994 282.34C51.4195 282.325 50.8767 282.076 50.4937 281.648L32.5603 261.677C32.0114 261.065 31.8736 260.187 32.209 259.437C32.5444 258.687 33.2909 258.203 34.1142 258.203H40.9836V243.078C40.9836 241.927 41.9179 240.995 43.0693 240.995H61.5785C62.7177 240.995 63.6459 241.907 63.6642 243.045L63.9301 259.585H70.5348C71.3777 259.585 72.1363 260.091 72.4608 260.868C72.784 261.645 72.6084 262.539 72.0156 263.136L53.5296 281.726C53.1381 282.121 52.6038 282.341 52.0489 282.341L52.0476 282.34ZM38.7857 262.368L52.1245 277.223L65.523 263.75H61.8761C60.7369 263.75 59.8087 262.837 59.7904 261.7L59.5245 245.159H45.155V260.285C45.155 261.436 44.2207 262.367 43.0693 262.367H38.7857V262.368Z" fill="#4F4F4F"/>
</g>
<defs>
<clipPath id="clip0_1018_365">
<rect width="480" height="396" fill="white"/>
</clipPath>
</defs>
</svg>
