<svg width="628" height="628" viewBox="0 0 628 628" fill="none" xmlns="http://www.w3.org/2000/svg">
<rect x="145" y="67" width="340" height="463" fill="white" stroke="#05060F" stroke-width="8"/>
<rect x="195" y="400" width="240" height="68" stroke="#05060F" stroke-width="8"/>
<rect x="199" y="127" width="232" height="233" stroke="#05060F" stroke-width="8"/>
<path d="M199 127L427 358.5" stroke="#05060F" stroke-width="8" stroke-miterlimit="3.62796" stroke-linecap="round" stroke-dasharray="20 20"/>
<path d="M427 127L199 358.5" stroke="#05060F" stroke-width="8" stroke-miterlimit="3.62796" stroke-linecap="round" stroke-dasharray="20 20"/>
<circle cx="485" cy="243" r="24" fill="#FF6F2C" stroke="#05060F" stroke-width="8"/>
<circle cx="315" cy="468" r="24" fill="#F8DB46" stroke="#05060F" stroke-width="8"/>
<circle cx="199" cy="127" r="24" fill="#4DC959" stroke="#05060F" stroke-width="8"/>
<path d="M576.121 245.121C577.293 243.95 577.293 242.05 576.121 240.879L557.029 221.787C555.858 220.615 553.958 220.615 552.787 221.787C551.615 222.958 551.615 224.858 552.787 226.029L569.757 243L552.787 259.971C551.615 261.142 551.615 263.042 552.787 264.213C553.958 265.385 555.858 265.385 557.029 264.213L576.121 245.121ZM509 246H574V240H509V246Z" fill="#05060F"/>
<path d="M80.8787 124.879C79.7071 126.05 79.7071 127.95 80.8787 129.121L99.9706 148.213C101.142 149.385 103.042 149.385 104.213 148.213C105.385 147.042 105.385 145.142 104.213 143.971L87.2426 127L104.213 110.029C105.385 108.858 105.385 106.958 104.213 105.787C103.042 104.615 101.142 104.615 99.9706 105.787L80.8787 124.879ZM171 124H83V130H171V124Z" fill="#05060F"/>
<path d="M312.879 577.121C314.05 578.293 315.95 578.293 317.121 577.121L336.213 558.029C337.385 556.858 337.385 554.958 336.213 553.787C335.042 552.615 333.142 552.615 331.971 553.787L315 570.757L298.029 553.787C296.858 552.615 294.958 552.615 293.787 553.787C292.615 554.958 292.615 556.858 293.787 558.029L312.879 577.121ZM312 496L312 575L318 575L318 496L312 496Z" fill="#05060F"/>
</svg>
